<mxfile host="app.diagrams.net" modified="2021-08-27T03:20:31.766Z" agent="5.0 (Windows NT 10.0; Win64; x64) AppleWebKit/537.36 (KHTML, like Gecko) Chrome/92.0.4515.159 Safari/537.36" etag="GHNSGAJK2HytyX-WB9GV" version="14.9.9" type="github">
  <diagram id="bM_wfJS56F1sdIb-5_cB" name="Page-1">
    <mxGraphModel dx="1038" dy="547" grid="1" gridSize="10" guides="1" tooltips="1" connect="1" arrows="1" fold="1" page="1" pageScale="1" pageWidth="827" pageHeight="1169" math="0" shadow="0">
      <root>
        <mxCell id="0" />
        <mxCell id="1" parent="0" />
        <mxCell id="8BB0WYbZp4TZoXRffc63-2" value="Windows" style="rounded=1;whiteSpace=wrap;html=1;fillColor=#dae8fc;strokeColor=#6c8ebf;" parent="1" vertex="1">
          <mxGeometry x="180" y="450" width="120" height="60" as="geometry" />
        </mxCell>
        <mxCell id="8BB0WYbZp4TZoXRffc63-3" value="Linux" style="rounded=1;whiteSpace=wrap;html=1;fillColor=#dae8fc;strokeColor=#6c8ebf;" parent="1" vertex="1">
          <mxGeometry x="380" y="450" width="120" height="60" as="geometry" />
        </mxCell>
        <mxCell id="8BB0WYbZp4TZoXRffc63-4" value="Unix&amp;nbsp;" style="rounded=1;whiteSpace=wrap;html=1;fillColor=#dae8fc;strokeColor=#6c8ebf;" parent="1" vertex="1">
          <mxGeometry x="580" y="450" width="120" height="60" as="geometry" />
        </mxCell>
        <mxCell id="8BB0WYbZp4TZoXRffc63-7" value="YOZO加载项" style="rounded=1;whiteSpace=wrap;html=1;" parent="1" vertex="1">
          <mxGeometry x="180" y="40" width="120" height="60" as="geometry" />
        </mxCell>
        <mxCell id="8BB0WYbZp4TZoXRffc63-8" value="传统控件&amp;nbsp; 传统插件" style="rounded=1;whiteSpace=wrap;html=1;" parent="1" vertex="1">
          <mxGeometry x="360" y="40" width="330" height="60" as="geometry" />
        </mxCell>
        <mxCell id="8BB0WYbZp4TZoXRffc63-9" value="JavaScript接口" style="rounded=1;whiteSpace=wrap;html=1;" parent="1" vertex="1">
          <mxGeometry x="180" y="150" width="120" height="60" as="geometry" />
        </mxCell>
        <mxCell id="8BB0WYbZp4TZoXRffc63-10" value="YOZO标准API接口" style="rounded=1;whiteSpace=wrap;html=1;" parent="1" vertex="1">
          <mxGeometry x="180" y="270" width="510" height="60" as="geometry" />
        </mxCell>
        <mxCell id="8BB0WYbZp4TZoXRffc63-11" value="文字排版" style="rounded=1;whiteSpace=wrap;html=1;" parent="1" vertex="1">
          <mxGeometry x="180" y="350" width="120" height="60" as="geometry" />
        </mxCell>
        <mxCell id="8BB0WYbZp4TZoXRffc63-13" value="表格计算" style="rounded=1;whiteSpace=wrap;html=1;" parent="1" vertex="1">
          <mxGeometry x="377.5" y="350" width="125" height="60" as="geometry" />
        </mxCell>
        <mxCell id="8BB0WYbZp4TZoXRffc63-14" value="简报动画" style="rounded=1;whiteSpace=wrap;html=1;" parent="1" vertex="1">
          <mxGeometry x="570" y="350" width="120" height="60" as="geometry" />
        </mxCell>
        <mxCell id="8BB0WYbZp4TZoXRffc63-16" value="" style="shape=flexArrow;endArrow=classic;startArrow=classic;html=1;entryX=0.5;entryY=1;entryDx=0;entryDy=0;exitX=0.677;exitY=0.023;exitDx=0;exitDy=0;exitPerimeter=0;" parent="1" source="8BB0WYbZp4TZoXRffc63-10" target="8BB0WYbZp4TZoXRffc63-8" edge="1">
          <mxGeometry width="100" height="100" relative="1" as="geometry">
            <mxPoint x="470" y="200" as="sourcePoint" />
            <mxPoint x="540" y="150" as="targetPoint" />
          </mxGeometry>
        </mxCell>
        <mxCell id="8BB0WYbZp4TZoXRffc63-17" value="" style="shape=flexArrow;endArrow=classic;startArrow=classic;html=1;entryX=0.5;entryY=1;entryDx=0;entryDy=0;exitX=0.5;exitY=0;exitDx=0;exitDy=0;" parent="1" source="8BB0WYbZp4TZoXRffc63-9" target="8BB0WYbZp4TZoXRffc63-7" edge="1">
          <mxGeometry width="100" height="100" relative="1" as="geometry">
            <mxPoint x="220" y="150" as="sourcePoint" />
            <mxPoint x="270" y="110" as="targetPoint" />
          </mxGeometry>
        </mxCell>
        <mxCell id="8BB0WYbZp4TZoXRffc63-18" value="" style="shape=flexArrow;endArrow=classic;startArrow=classic;html=1;entryX=0.5;entryY=1;entryDx=0;entryDy=0;width=11;endSize=3.64;exitX=0.12;exitY=0.003;exitDx=0;exitDy=0;exitPerimeter=0;" parent="1" source="8BB0WYbZp4TZoXRffc63-10" target="8BB0WYbZp4TZoXRffc63-9" edge="1">
          <mxGeometry width="100" height="100" relative="1" as="geometry">
            <mxPoint x="240" y="241" as="sourcePoint" />
            <mxPoint x="270" y="200" as="targetPoint" />
          </mxGeometry>
        </mxCell>
        <mxCell id="O1P99uhnvQyLq_cA9t3E-6" value="&lt;font style=&quot;font-size: 20px&quot;&gt;.....&lt;/font&gt;" style="rounded=1;whiteSpace=wrap;html=1;fillColor=#f5f5f5;strokeColor=#666666;fontColor=#333333;" vertex="1" parent="1">
          <mxGeometry x="740" y="350" width="120" height="60" as="geometry" />
        </mxCell>
        <mxCell id="O1P99uhnvQyLq_cA9t3E-7" value="&lt;font style=&quot;font-size: 17px&quot;&gt;YOZO接口&lt;/font&gt;" style="text;html=1;strokeColor=none;fillColor=none;align=center;verticalAlign=middle;whiteSpace=wrap;rounded=0;" vertex="1" parent="1">
          <mxGeometry x="40" y="60" width="90" height="30" as="geometry" />
        </mxCell>
        <mxCell id="O1P99uhnvQyLq_cA9t3E-9" value="&lt;font style=&quot;font-size: 17px&quot;&gt;YOZO接口&lt;/font&gt;" style="text;html=1;strokeColor=none;fillColor=none;align=center;verticalAlign=middle;whiteSpace=wrap;rounded=0;" vertex="1" parent="1">
          <mxGeometry x="40" y="250" width="90" height="30" as="geometry" />
        </mxCell>
        <mxCell id="O1P99uhnvQyLq_cA9t3E-10" value="&lt;span style=&quot;font-size: 17px&quot;&gt;YOZO核心&lt;/span&gt;" style="text;html=1;strokeColor=none;fillColor=none;align=center;verticalAlign=middle;whiteSpace=wrap;rounded=0;" vertex="1" parent="1">
          <mxGeometry x="40" y="365" width="90" height="30" as="geometry" />
        </mxCell>
        <mxCell id="O1P99uhnvQyLq_cA9t3E-11" value="&lt;span style=&quot;font-size: 17px&quot;&gt;系统平台&lt;/span&gt;" style="text;html=1;strokeColor=none;fillColor=none;align=center;verticalAlign=middle;whiteSpace=wrap;rounded=0;" vertex="1" parent="1">
          <mxGeometry x="40" y="470" width="90" height="30" as="geometry" />
        </mxCell>
        <mxCell id="O1P99uhnvQyLq_cA9t3E-13" value="&lt;font style=&quot;font-size: 20px&quot;&gt;.....&lt;/font&gt;" style="rounded=1;whiteSpace=wrap;html=1;fillColor=#f5f5f5;strokeColor=#666666;fontColor=#333333;" vertex="1" parent="1">
          <mxGeometry x="740" y="450" width="120" height="60" as="geometry" />
        </mxCell>
      </root>
    </mxGraphModel>
  </diagram>
</mxfile>
